<?xml version="1.0" encoding="utf-8"?>
<!-- Generator: Adobe Illustrator 27.0.0, SVG Export Plug-In . SVG Version: 6.00 Build 0)  -->
<svg version="1.1" id="图层_1" xmlns="http://www.w3.org/2000/svg" xmlns:xlink="http://www.w3.org/1999/xlink" x="0px" y="0px"
	 viewBox="0 0 32 32" style="enable-background:new 0 0 32 32;" xml:space="preserve">
<style type="text/css">
	.st0{fill:#111111;}
</style>
<path class="st0" d="M2.3,24.6c0,0.5,0.2,0.9,0.5,1.2c0.3,0.3,0.7,0.5,1.2,0.5c1.1,0.1,2.2,0.1,3.3,0.2c1.1,0.1,2.3,0.3,3.7,0.6
	s2.5,0.7,3.3,1.1c0.1,0.4,0.2,0.8,0.5,1c0.3,0.3,0.7,0.4,1.1,0.4c0.4,0,0.8-0.1,1.1-0.4c0.3-0.3,0.5-0.6,0.6-1
	c0.8-0.4,1.9-0.8,3.3-1.1c1.4-0.3,2.6-0.5,3.7-0.6c1.1-0.1,2.2-0.2,3.3-0.2c0.5,0,0.9-0.2,1.2-0.5c0.3-0.3,0.5-0.7,0.5-1.2V4
	c0-0.5-0.2-0.9-0.5-1.2c-0.3-0.3-0.7-0.5-1.2-0.5c0,0,0,0-0.1,0c0,0-0.1,0-0.1,0c-5.4,0.1-9,0.9-10.8,2.2c-0.6,0.4-0.9,0.8-1,1.2
	l-0.1-0.3c-0.3-0.7-1.2-1.4-2.7-1.9c-2.1-0.7-5.1-1.1-9-1.3c0,0-0.1,0-0.1,0c0,0-0.1,0-0.1,0c-0.5,0-0.9,0.2-1.2,0.5S2.3,3.6,2.3,4
	L2.3,24.6L2.3,24.6z M5.7,23v-17c3.9,0.3,6.8,0.9,8.6,1.8v16.9C12.5,23.7,9.7,23.2,5.7,23L5.7,23z M7.5,19.4c0.1,0,0.1,0,0.3,0
	c0.1,0,0.4,0,0.7,0c0.3,0,0.7,0,1,0.1c0.3,0.1,0.7,0.1,1.1,0.2c0.4,0.1,0.7,0.2,1,0.3s0.5,0.3,0.7,0.5c0.2,0.2,0.3,0.4,0.3,0.6v-3.4
	c0-0.1,0-0.1,0-0.2c0-0.1-0.1-0.2-0.3-0.4c-0.2-0.2-0.4-0.4-0.8-0.5c-0.3-0.1-0.8-0.3-1.5-0.4C9.3,16.1,8.4,16,7.5,16L7.5,19.4
	L7.5,19.4z M7.5,12.6c0.1,0,0.1,0,0.3,0c0.1,0,0.4,0,0.7,0c0.3,0,0.7,0,1,0.1c0.3,0.1,0.7,0.1,1.1,0.2c0.4,0.1,0.7,0.2,1,0.3
	s0.5,0.3,0.7,0.5c0.2,0.2,0.3,0.4,0.3,0.6v-3.4c0-0.1,0-0.1,0-0.2c0-0.1-0.1-0.2-0.3-0.4c-0.2-0.2-0.4-0.4-0.8-0.5
	c-0.3-0.1-0.8-0.3-1.5-0.4C9.3,9.2,8.4,9.2,7.5,9.2L7.5,12.6L7.5,12.6z M17.7,24.6V7.7c1.8-0.9,4.6-1.5,8.5-1.8v17
	C22.3,23.2,19.5,23.7,17.7,24.6L17.7,24.6z M19.4,21.1c0-0.3,0.2-0.6,0.5-0.8c0.3-0.2,0.8-0.4,1.3-0.5s1-0.2,1.5-0.2
	c0.5-0.1,0.9-0.1,1.3-0.1l0.5,0V16c-1,0-1.8,0.1-2.5,0.2c-0.7,0.1-1.2,0.3-1.5,0.4c-0.3,0.1-0.6,0.3-0.7,0.5
	c-0.2,0.2-0.3,0.3-0.3,0.4l0,0.2L19.4,21.1L19.4,21.1z M19.4,14.3c0-0.3,0.2-0.6,0.5-0.8s0.8-0.4,1.3-0.5s1-0.2,1.5-0.2
	c0.5-0.1,0.9-0.1,1.3-0.1l0.5,0V9.2c-1,0-1.8,0.1-2.5,0.2c-0.7,0.1-1.2,0.3-1.5,0.4c-0.3,0.1-0.6,0.3-0.7,0.5
	c-0.2,0.2-0.3,0.3-0.3,0.4l0,0.2L19.4,14.3L19.4,14.3z"/>
</svg>
