<?xml version="1.0" encoding="utf-8"?>
<!-- Generator: Adobe Illustrator 27.0.0, SVG Export Plug-In . SVG Version: 6.00 Build 0)  -->
<svg version="1.1" id="图层_1" xmlns="http://www.w3.org/2000/svg" xmlns:xlink="http://www.w3.org/1999/xlink" x="0px" y="0px"
	 viewBox="0 0 32 32" style="enable-background:new 0 0 32 32;" xml:space="preserve">
<style type="text/css">
	.st0{fill:#111111;}
</style>
<path class="st0" d="M30.3,15.8c0,0.3,0,0.5,0,0.8c-0.1,0,0,0.1-0.1,0.1c-0.3,1.1-1.1,1.6-2.2,1.6c-0.4,0-0.8,0-1.2,0
	c-0.3,0-0.3,0.1-0.3,0.3c0,2.9,0,5.8,0,8.7c0,1.7-1.2,2.9-2.9,2.9c-5.1,0-10.2,0-15.3,0c-0.2,0-0.4,0-0.5,0
	c-1.4-0.2-2.3-1.3-2.4-2.8c0-1.3,0-2.7,0-4c0-1.6,0-3.1,0-4.7c0-0.3-0.1-0.3-0.3-0.3c-0.4,0-0.8,0-1.2,0c-1,0-1.7-0.4-2.1-1.3
	c-0.4-0.8-0.2-1.7,0.5-2.4c4-4,8-8,12-12c0.3-0.3,0.6-0.5,0.9-0.6c0.9-0.3,1.7,0,2.3,0.6c3.8,3.8,7.6,7.6,11.4,11.4
	C29.6,14.5,30.1,15,30.3,15.8z M16,26.2c1,0,2,0,3,0c0.2,0,0.3,0,0.3-0.2c0-1.2,0-2.4,0-3.6c-0.1-1.7-1.5-3-3.2-3
	c-1.7,0-3.1,1.3-3.2,3c0,1.2,0,2.4,0,3.6c0,0.2,0.1,0.2,0.3,0.2C14,26.2,15,26.2,16,26.2z"/>
</svg>
