<?xml version="1.0" encoding="UTF-8"?>
<svg id="_图层_1" data-name="图层 1" xmlns="http://www.w3.org/2000/svg" viewBox="0 0 28.73 28.73">
  <defs>
    <style>
      .cls-1 {
        fill: #111;
      }
    </style>
  </defs>
  <path class="cls-1" d="M14.36,0C6.43,0,0,6.43,0,14.36s6.43,14.36,14.36,14.36,14.36-6.43,14.36-14.36S22.3,0,14.36,0h0Zm-1.88,21.45c-1.44,1.43-3.77,1.43-5.21,0-1.44-1.44-1.44-3.77,0-5.2l3.69-3.69c1.44-1.43,3.77-1.43,5.21,0,.04,.04,.08,.08,.11,.12,.02,.02,.04,.04,.06,.06,.06,.06,.11,.12,.14,.19,0,0,0,.01,.01,.02h0c.18,.34,.13,.76-.16,1.04-.28,.28-.71,.33-1.04,.15-.02,.03-.25-.21-.38-.33h0c-.75-.75-1.96-.76-2.71,0l-3.69,3.69c-.75,.75-.75,1.96,0,2.71h0c.75,.75,1.96,.75,2.71,0l2.22-2.22c.77,.38,1.68,.39,2.46,.03l-3.43,3.44h0Zm8.97-8.97l-3.69,3.69c-1.44,1.44-3.77,1.44-5.21,0-.04-.04-.08-.08-.11-.12-.02-.02-.04-.04-.06-.06-.06-.06-.11-.12-.14-.19,0,0,0-.01-.01-.02h0c-.18-.34-.13-.76,.16-1.04,.28-.28,.71-.33,1.04-.15,.02-.03,.25,.21,.38,.33h0c.75,.75,1.96,.76,2.71,0l3.69-3.69c.75-.75,.75-1.96,0-2.71h0c-.75-.75-1.96-.75-2.71,0l-2.22,2.22c-.77-.38-1.68-.39-2.46-.03l3.43-3.43c1.44-1.44,3.77-1.44,5.21,0,1.43,1.43,1.43,3.77,0,5.2h0Z"/>
</svg>