<?xml version="1.0" encoding="utf-8"?>
<!-- Generator: Adobe Illustrator 27.0.0, SVG Export Plug-In . SVG Version: 6.00 Build 0)  -->
<svg version="1.1" id="图层_1" xmlns="http://www.w3.org/2000/svg" xmlns:xlink="http://www.w3.org/1999/xlink" x="0px" y="0px"
	 viewBox="0 0 79.5 32" style="enable-background:new 0 0 79.5 32;" xml:space="preserve">
<style type="text/css">
	.st0{fill:#111111;}
</style>
<g>
	<polygon class="st0" points="30.6,12.5 29.1,16.4 32.2,16.4 30.6,12.5 	"/>
	<path class="st0" d="M78,0.4H1.5C1.2,0.4,1,0.6,1,0.9v30.3c0,0.3,0.2,0.5,0.5,0.5H78c0.3,0,0.5-0.2,0.5-0.5V0.9
		C78.4,0.6,78.2,0.4,78,0.4z M16.1,24.6H7.5v-0.4c0,0,1.4-0.2,2-0.5c0.5-0.2,0.9-0.7,1-2.6c0.1-1.7,0.1-3.4,0.1-5.5
		c0-1.9,0-3.4,0-5.2c0-0.9,0-1.8-0.7-2.3c-0.6-0.4-2-0.6-2-0.6V7.4h8v0.4c0,0-1.1,0-1.8,0.4c-0.6,0.4-0.8,1.3-0.8,2.4
		c0,1.8-0.1,3.1-0.1,5.1c0,2.2,0,3.5,0.1,5.6c0,1.5,0.2,2.1,0.9,2.5c0.6,0.3,2,0.5,2,0.5V24.6z M26.1,24.6h-8v-0.4
		c0,0,1.3,0,1.6-0.7c-0.2-0.5-0.7-1.1-0.9-1.4c-2.4-3-4.9-5.7-4.9-5.7c1.5-1.8,2.9-3.5,4.2-5.4c0.8-1.1,1.1-1.7,1.1-2.3
		c0-0.8-0.9-0.9-1.7-1.1V7.4H25v0.4c-0.6,0.1-2.5,0-5.1,2.9c-1,1.1-3,3.6-3.6,4.5c2.1,2.6,4,4.8,5.3,6.4c1.3,1.5,2.1,2.1,2.9,2.4
		c0.5,0.2,1,0.3,1.6,0.3L26.1,24.6L26.1,24.6z M37.9,21.5h-6.2v-0.3c0.4,0,1.7-0.1,1.7-1c0-0.4-0.1-0.7-0.3-1.2
		c-0.3-0.8-0.7-1.8-0.7-1.8h-3.7c-0.3,0.7-0.4,1.2-0.6,1.7c-0.1,0.5-0.3,1-0.3,1.3c0,1,1.3,1,1.6,1v0.3h-5v-0.3c0.5,0,1-0.1,1.5-0.5
		c0.4-0.4,0.8-1.1,1.3-2.2c0.7-1.7,2.8-6.8,2.8-6.8c-0.3-0.8-1.2-0.7-1.7-0.8v-0.3h5.2v0.3c0,0-1.1,0-1.3,0.6c0,0,2.3,5.8,2.9,7.2
		c0.6,1.5,0.9,1.9,1.3,2.1c0.4,0.3,0.9,0.4,1.3,0.4L37.9,21.5L37.9,21.5z M52.7,10.9c0,0-0.8,0-1.3,0.3c-0.5,0.3-0.7,0.5-0.7,2.2
		c0,1.4,0,3.6,0,6.5c0,0.4,0,1.8,0,1.8l-0.6,0.1c0,0-5.8-6.1-8.1-8.6l0,0c0,0,0,3.5,0,5c0,1.7,0.1,2.4,0.6,2.6
		c0.7,0.3,1.6,0.4,1.6,0.4v0.3h-5.2v-0.3c0,0,1-0.1,1.5-0.4c0.5-0.3,0.6-0.8,0.7-2.3c0-1.3,0.1-6.1,0.1-6.1
		c-1.1-1.3-1.7-1.3-2.6-1.5v-0.3h5.4v0.3c0,0-0.9,0-1,0.5c2.7,3,6.8,7.1,6.8,7.1s0-3.2-0.1-5.2c-0.1-1.5-0.3-1.8-0.7-2
		c-0.6-0.3-1.4-0.3-1.4-0.3h0v-0.3h5.1L52.7,10.9L52.7,10.9z M72,17.2c0,0-0.9,0-1.4,0.4c-0.7,0.4-0.6,1-0.5,3c0,1.3,0,2.7,0,2.7
		c0.4,0.2,1.1,0.2,1.1,0.2v0.3c0,0-3.6,0.8-4.2,0.8c-0.7,0.1-1.8,0.3-3.4,0.3c-4.6,0-10-2.9-10-8.9c0-4.7,4.1-9,10.1-9
		c3,0,5,0.7,5.5,0.7c0.4,0,0.5-0.2,0.6-0.4h0.3c0,0-0.3,2.3-0.4,5.1h-0.4c0,0-0.3-2-0.8-2.7c-1.1-1.3-3-1.6-4.4-1.6
		C60,8,57,10.8,57,15.7c0,3.1,1.9,8.2,8.1,8.2c1.1,0,2.3-0.3,2.3-0.3s0.1-1.6,0.1-3.2c0-1.8,0.1-2.5-1-2.9c-0.5-0.2-1.5-0.4-2-0.4
		v-0.4H72L72,17.2L72,17.2z"/>
</g>
</svg>
