<?xml version="1.0" encoding="utf-8"?>
<!-- Generator: Adobe Illustrator 27.0.0, SVG Export Plug-In . SVG Version: 6.00 Build 0)  -->
<svg version="1.1" id="图层_1" xmlns="http://www.w3.org/2000/svg" xmlns:xlink="http://www.w3.org/1999/xlink" x="0px" y="0px"
	 viewBox="0 0 79.5 32" style="enable-background:new 0 0 79.5 32;" xml:space="preserve">
<style type="text/css">
	.st0{fill:#FFFFFF;}
</style>
<g>
	<path class="st0" d="M9,22.2c-0.1-2.5-0.1-3.9-0.1-6.5c0-2.4,0-3.9,0.1-6c0-1.3,0.1-2.4,0.9-2.8c0.7-0.4,2.1-0.4,2.1-0.4V6H2.6v0.4
		c0,0,1.7,0.2,2.4,0.7c0.8,0.5,0.8,1.6,0.8,2.6c0.1,2,0.1,3.7,0.1,6c0,2.5,0,4.5-0.1,6.4c-0.1,2.1-0.5,2.7-1.1,3
		c-0.7,0.3-2.3,0.5-2.3,0.5V26h10v-0.4c0,0-1.6-0.2-2.3-0.5C9.2,24.6,9,23.9,9,22.2z"/>
	<path class="st0" d="M18.7,22.4c-1.6-1.8-3.7-4.3-6.2-7.4c0.7-1.1,3-3.9,4.2-5.2c3-3.4,5.2-3.3,6-3.3V6h-8.8v0.4
		c0.9,0.1,2,0.3,2,1.2c0,0.6-0.4,1.4-1.3,2.7c-1.6,2.2-3.1,4.2-4.9,6.3c0,0,2.9,3.1,5.7,6.6c0.2,0.3,0.8,1.1,1.1,1.6
		c-0.4,0.7-1.9,0.8-1.9,0.8V26h9.3v-0.4c-0.6-0.1-1.2-0.1-1.8-0.4C21.2,24.8,20.2,24.1,18.7,22.4z"/>
	<path class="st0" d="M34.5,19.1c-0.7-1.6-3.4-8.3-3.4-8.3c0.2-0.6,1.5-0.7,1.5-0.7V9.7h-6.1V10c0.6,0.1,1.7,0,2,0.9
		c0,0-2.4,5.9-3.3,7.9c-0.5,1.2-1.1,2.1-1.5,2.5c-0.5,0.5-1.2,0.6-1.7,0.6v0.4H28V22c-0.4,0-1.9,0-1.9-1.2c0-0.4,0.1-0.9,0.3-1.5
		c0.2-0.6,0.4-1.1,0.7-1.9h4.3c0,0,0.5,1.2,0.8,2.1c0.2,0.6,0.3,1,0.3,1.4c0,1-1.5,1.1-2,1.1v0.4h7.2V22c-0.5,0-1.1-0.1-1.6-0.4
		C35.6,21.3,35.3,20.8,34.5,19.1z M27.4,16.4l1.7-4.5h0l1.9,4.5H27.4z"/>
	<path class="st0" d="M48.9,10.1c0,0,1,0.1,1.6,0.4c0.5,0.2,0.7,0.7,0.8,2.4c0.1,2.3,0.2,6.1,0.2,6.1s-4.7-4.8-7.9-8.3
		c0.1-0.5,1.1-0.6,1.1-0.6V9.7h-6.3v0.4c1,0.2,1.7,0.2,3,1.7c0,0-0.1,5.6-0.1,7.1c-0.1,1.7-0.2,2.4-0.8,2.7
		c-0.6,0.3-1.7,0.4-1.7,0.4v0.4h6.1V22c0,0-1-0.1-1.8-0.5c-0.5-0.2-0.6-1-0.7-3c0-1.7,0-5.8,0-5.8l0.1,0c2.6,2.8,9.4,9.9,9.4,9.9
		l0.7-0.1c0,0-0.1-1.6-0.1-2.1c0-3.4,0-6,0.1-7.6c0.1-1.9,0.3-2.2,0.8-2.5c0.6-0.3,1.5-0.3,1.5-0.3V9.7h-5.9L48.9,10.1L48.9,10.1z"
		/>
	<path class="st0" d="M75.6,17.8c0.6-0.4,1.6-0.4,1.6-0.4v-0.4h-8.7v0.4c0.5,0.1,1.7,0.2,2.3,0.5c1.3,0.5,1.2,1.3,1.2,3.4
		c0,1.8-0.1,3.7-0.1,3.7s-1.4,0.4-2.7,0.4c-7.2,0-9.4-5.9-9.4-9.5c0-5.7,3.5-8.9,8.3-8.9c1.6,0,3.9,0.4,5.1,1.9c0.7,0.8,1,3.2,1,3.2
		h0.4c0.1-3.1,0.5-5.9,0.5-5.9h-0.4c-0.1,0.2-0.2,0.5-0.7,0.5c-0.6,0-2.9-0.8-6.4-0.8c-7.1,0-11.8,5-11.8,10.4
		c0,7,6.3,10.4,11.6,10.4c1.9,0,3.2-0.3,4-0.4c0.7-0.1,4.8-1,4.8-1v-0.4c0,0-0.8,0-1.3-0.2c0,0,0-1.6,0-3.1
		C74.9,19,74.8,18.3,75.6,17.8z"/>
</g>
</svg>
