<?xml version="1.0" encoding="utf-8"?>
<!-- Generator: Adobe Illustrator 27.0.0, SVG Export Plug-In . SVG Version: 6.00 Build 0)  -->
<svg version="1.1" id="图层_1" xmlns="http://www.w3.org/2000/svg" xmlns:xlink="http://www.w3.org/1999/xlink" x="0px" y="0px"
	 viewBox="0 0 391.4 138.9" style="enable-background:new 0 0 391.4 138.9;" xml:space="preserve">
<style type="text/css">
	.st0{fill:#939393;}
</style>
<g>
	<path class="st0" d="M52,99.2c-0.4-11.9-0.4-19-0.4-31.5c0-11.5,0.1-18.6,0.4-28.8c0.1-6.2,0.7-11.6,4.3-13.7
		c3.4-1.9,9.9-2.1,9.9-2.1v-2.1H21.3v2.1c0,0,8,0.8,11.5,3.2c3.7,2.3,3.7,7.6,3.9,12.6c0.3,9.7,0.3,18.1,0.3,29
		c0,12,0,21.5-0.4,30.8C36.1,109,34,111.8,31.1,113c-3.6,1.5-11.3,2.6-11.3,2.6v2.1h48.3v-2.1c0,0-7.5-0.8-11-2.6
		C53.2,111.1,52.3,107.7,52,99.2z"/>
	<path class="st0" d="M99,100.2c-7.5-8.6-17.9-20.8-29.7-35.6c3.4-5.2,14.6-19,20.1-25.3c14.6-16.4,25.3-15.7,28.8-16.1v-2.1H75.8
		v2.1c4.4,0.6,9.5,1.4,9.5,5.9c0,3-1.9,6.6-6.2,12.8c-7.5,10.6-14.9,20.1-23.5,30.2c0,0,14.1,15,27.6,32c1.2,1.5,4.1,5.1,5.1,7.7
		c-1.9,3.4-9,3.7-9,3.7v2.1h44.8v-2.1c-3-0.3-5.8-0.7-8.8-1.9C111,111.9,106.3,108.6,99,100.2z"/>
	<path class="st0" d="M175.5,84.1c-3.3-7.7-16.3-40.3-16.3-40.3c1.2-3,7.3-3.2,7.3-3.2v-1.8h-29.3v1.8c2.8,0.3,8,0,9.8,4.4
		c0,0-11.6,28.6-15.7,37.9c-2.6,5.8-5.1,10.2-7.3,12.3c-2.6,2.5-5.7,2.9-8.4,3v1.8h28.1v-1.8c-1.9-0.1-9,0-9-5.7
		c0-1.9,0.7-4.3,1.5-7.3c0.8-2.8,1.8-5.5,3.2-9.4h20.8c0,0,2.5,5.9,3.9,10.1c1,2.9,1.4,4.8,1.4,6.9c0,5-7.3,5.1-9.8,5.4v1.8h34.6
		v-1.8c-2.3-0.1-5.4-0.7-7.5-2.1C180.6,94.7,179.1,92.7,175.5,84.1z M141.1,71.4l8.1-21.8h0.1l9.4,21.8H141.1z"/>
	<path class="st0" d="M244.8,40.8c0,0,4.6,0.4,7.9,1.9c2.6,1.2,3.4,3.4,4,11.5c0.7,11.1,0.8,29.3,0.8,29.3s-22.9-23.1-38.1-40
		c0.4-2.6,5.4-2.7,5.4-2.7V39h-30.5v1.8c5,0.8,8.3,0.8,14.5,8.1c0,0-0.4,27.2-0.7,34.5c-0.3,8-1,11.4-3.7,12.8
		c-2.9,1.5-8.3,2.1-8.3,2.1v1.8h29.3v-1.8c0,0-5-0.4-8.8-2.2c-2.6-1.2-3-4.8-3.2-14.6c-0.1-8-0.1-27.8-0.1-27.8l0.3-0.1
		c12.7,13.6,45.3,48,45.3,48l3.4-0.4c0,0-0.3-7.7-0.3-9.9c0-16.4,0-29,0.3-36.7c0.3-9.3,1.4-10.7,4.1-12.1c3-1.5,7.2-1.6,7.2-1.6V39
		h-28.7V40.8z"/>
	<path class="st0" d="M373.6,78c2.8-1.8,7.9-2.1,7.9-2.1v-2.1h-42.2v2.1c2.6,0.3,8.3,1.2,11.2,2.3c6.5,2.5,5.7,6.3,5.7,16.3
		c0,8.6-0.4,17.7-0.4,17.7s-6.9,1.7-12.8,1.7c-34.8,0-45.4-28.7-45.4-46.1c0-27.7,16.7-43.1,40-43.1c7.9,0,18.6,1.9,24.6,9.2
		c3.3,4.1,4.7,15.3,4.7,15.3h2.1c0.6-15.2,2.2-28.4,2.2-28.4h-1.7c-0.7,1-1.2,2.2-3.4,2.2c-2.8,0-14.2-3.9-30.8-3.9
		c-34.1,0-56.9,24-56.9,50.4c0,33.8,30.4,50.1,56.2,50.1c9,0,15.3-1.4,19.2-1.9c3.2-0.4,23.3-4.7,23.3-4.7v-1.9c0,0-4,0-6.3-1.2
		c0,0-0.1-7.5-0.1-15C370.4,83.8,369.9,80.5,373.6,78z"/>
</g>
</svg>
