<?xml version="1.0" encoding="utf-8"?>
<!-- Generator: Adobe Illustrator 27.0.0, SVG Export Plug-In . SVG Version: 6.00 Build 0)  -->
<svg version="1.1" id="Layer_1" xmlns="http://www.w3.org/2000/svg" xmlns:xlink="http://www.w3.org/1999/xlink" x="0px" y="0px"
	 viewBox="0 0 240 234" style="enable-background:new 0 0 240 234;" xml:space="preserve">
<style type="text/css">
	.st0{fill:#3F3F3F;}
	.st1{fill-rule:evenodd;clip-rule:evenodd;fill:#74BB11;}
	.st2{fill-rule:evenodd;clip-rule:evenodd;fill:#009CD9;}
	.st3{fill-rule:evenodd;clip-rule:evenodd;fill:#EB2084;}
</style>
<g>
	<g id="Layer_2_1_">
		<g id="Surfaces">
			<g id="Photo_Surface">
				<g id="Outline_no_shadow">
					<path class="st0" d="M42.5,0h155C221,0,240,19,240,42.5v149c0,23.5-19,42.5-42.5,42.5h-155C19,234,0,215,0,191.5v-149
						C0,19,19,0,42.5,0z"/>
				</g>
			</g>
		</g>
	</g>
	<g>
		<path class="st1" d="M197.2,24c-1.5-3.2-4.7-5.1-8.7-5.1h-15.1c-4.4,0-7.7,1.8-9.4,4.9l-22.4,32.7l19.6,26.8l34.2-49.1
			C199.2,29.7,197.9,25.6,197.2,24"/>
		<path class="st2" d="M79.2,23.5L79.2,23.5c-3.4-4.6-8-4.6-9.5-4.6H54.9c-3.8,0-6.9,1.7-8.5,4.8c-1.7,3.1-1.3,6.8,1,10.3l54.7,75.9
			l-62.9,87.8c-2.2,3.3-2.5,7-0.8,10.1c1.6,3,4.7,4.8,8.5,4.8H62c3.9,0,7.3-2,9-5.2l70.5-97.1L79.2,23.5z"/>
		<path class="st3" d="M204.7,198.4l-43.9-60.3l-19.3,26.6l34.7,46.4l0.9,0.4c1.4,0.6,2.9,0.9,4.4,1h14.8c3.6,0,6.6-1.6,8.3-4.4
			C206.3,205.3,206.4,201.7,204.7,198.4"/>
	</g>
</g>
</svg>
