<?xml version="1.0" encoding="utf-8"?>
<!-- Generator: Adobe Illustrator 27.0.0, SVG Export Plug-In . SVG Version: 6.00 Build 0)  -->
<svg version="1.1" id="Layer_1" xmlns="http://www.w3.org/2000/svg" xmlns:xlink="http://www.w3.org/1999/xlink" x="0px" y="0px"
	 viewBox="0 0 240 234" style="enable-background:new 0 0 240 234;" xml:space="preserve">
<style type="text/css">
	.st0{fill:#EDEDED;}
	.st1{fill:#1ABCFE;}
	.st2{fill:#0ACF83;}
	.st3{fill:#FF7262;}
	.st4{fill:#F24E1E;}
	.st5{fill:#A259FF;}
</style>
<g id="Layer_2_1_">
	<g id="Surfaces">
		<g id="Photo_Surface">
			<g id="Outline_no_shadow">
				<path class="st0" d="M42.5,0h155C221,0,240,19,240,42.5v149c0,23.5-19,42.5-42.5,42.5h-155C19,234,0,215,0,191.5v-149
					C0,19,19,0,42.5,0z"/>
			</g>
		</g>
	</g>
	<g>
		<path class="st1" d="M120,117c0-18.1,14.7-32.9,32.9-32.9s32.9,14.7,32.9,32.9s-14.7,32.9-32.9,32.9S120,135.2,120,117z"/>
		<path class="st2" d="M54.3,182.7c0-18.1,14.7-32.9,32.9-32.9H120v32.9c0,18.1-14.7,32.9-32.9,32.9S54.3,200.9,54.3,182.7z"/>
		<path class="st3" d="M120,18.6v65.6h32.9c18.1,0,32.9-14.7,32.9-32.9S171,18.5,152.8,18.5L120,18.6L120,18.6z"/>
		<path class="st4" d="M54.3,51.4c0,18.1,14.7,32.9,32.9,32.9H120V18.6H87.1C69,18.6,54.3,33.2,54.3,51.4z"/>
		<path class="st5" d="M54.3,117c0,18.1,14.7,32.9,32.9,32.9H120V84.2H87.1C69,84.2,54.3,98.9,54.3,117z"/>
	</g>
</g>
</svg>
