<?xml version="1.0" encoding="utf-8"?>
<!-- Generator: Adobe Illustrator 27.0.0, SVG Export Plug-In . SVG Version: 6.00 Build 0)  -->
<svg version="1.1" id="Layer_1" xmlns="http://www.w3.org/2000/svg" xmlns:xlink="http://www.w3.org/1999/xlink" x="0px" y="0px"
	 viewBox="0 0 240 234" style="enable-background:new 0 0 240 234;" xml:space="preserve">
<style type="text/css">
	.st0{fill:#1E7E79;}
	.st1{fill:#62C7CA;}
	.st2{fill:#FDFEFE;}
	.st3{fill:#51C1C5;}
	.st4{fill:#1A7E79;}
	.st5{fill:#1A7E7A;}
	.st6{fill:#1A7F7A;}
	.st7{fill:#1C7F7A;}
	.st8{fill:#006C66;}
</style>
<g>
	<path class="st0" d="M226.8,116.8c0,14.6-0.1,29.2,0.1,43.7c0.1,5.9-1.9,10.9-5.5,15.3c-2.7,3.3-5.8,6.1-9.6,8.3
		c-6,3.4-12,6.9-18,10.4c-7.4,4.3-14.8,8.6-22.3,12.8c-7.5,4.2-14.9,8.4-22.5,12.5c-7.8,4.2-15.7,8.3-23.7,12
		c-3.6,1.7-6.8,1.6-10.4,0c-7.5-3.5-14.9-7.3-22.2-11.2c-7.6-4.1-15.1-8.3-22.6-12.5c-7.5-4.2-14.9-8.5-22.3-12.8
		c-7.1-4.1-14.4-8.1-21.3-12.6c-6.4-4.2-11.2-9.9-12.9-17.6c-0.3-1.2-0.4-2.5-0.4-3.8c0-29.1,0.1-58.2,0-87.4
		c0-8.5,3.2-15.3,9.2-21.1c2.6-2.4,5.4-4.4,8.5-6.1c8.8-5,17.7-10,26.5-14.9c7.6-4.2,15.2-8.4,22.8-12.5c10.2-5.5,20.4-10.9,31-15.7
		c1.5-0.7,3-1.2,4.4-1.9c3.4-1.7,6.6-1.1,9.9,0.3c7.3,3.2,14.4,6.7,21.5,10.4c11.6,6,23,12.3,34.4,18.6c7.3,4,14.6,8.2,21.9,12.3
		c2.5,1.4,5.1,2.8,7.5,4.3c6.7,4.1,12.1,9.4,14.9,16.9c0.8,2.1,1.2,4.3,1.2,6.5C226.8,86.3,226.8,101.6,226.8,116.8z M215.6,116.8
		c0-14.6,0-29.2,0-43.9c0-3.1-1-5.9-2.8-8.4c-2.6-3.8-6.4-6.2-10.3-8.4c-5.7-3.2-11.4-6.3-17.1-9.6c-9.1-5.2-18.2-10.1-27.4-15.2
		c-4.1-2.2-8.1-4.4-12.2-6.5c-8.1-4.2-16.1-8.4-24.4-12c-0.9-0.4-1.8-0.4-2.7,0c-2.1,1-4.3,1.9-6.4,2.9c-7.8,3.7-15.5,7.7-23.1,11.8
		c-6.5,3.5-13,6.9-19.4,10.5c-9.2,5.1-18.3,10.2-27.4,15.4c-4,2.3-8.2,4.2-11.7,7.4c-3.5,3.2-6.1,6.9-6.1,11.8c0,29.4,0,58.9,0,88.3
		c0,1.4,0.3,2.8,0.9,4.1c1.4,3.1,3.5,5.6,6.3,7.5c5.3,3.6,11,6.6,16.5,9.8c6.3,3.8,12.7,7.3,19.1,11c9,5.2,18.2,10.3,27.3,15.3
		c2.7,1.5,5.5,2.9,8.2,4.4c5.4,2.9,10.9,5.7,16.5,8.2c0.6,0.3,1.1,0.2,1.6,0c3.1-1.3,6.2-3,9.2-4.5c5.9-2.9,11.7-6,17.4-9.2
		c8-4.4,16-8.8,23.9-13.5c4.3-2.5,8.7-4.9,13-7.5c6.8-4,13.6-8.1,20.5-12c2.7-1.6,5.2-3.3,7.2-5.8c2.1-2.6,3.4-5.3,3.4-8.8
		C215.6,145.8,215.6,131.3,215.6,116.8z"/>
	<path class="st1" d="M215.6,116.8c0,14.5,0,28.9,0,43.4c0,3.4-1.3,6.2-3.4,8.8c-2,2.4-4.5,4.2-7.2,5.8c-6.9,3.9-13.7,8-20.5,12
		c-4.3,2.5-8.7,4.9-13,7.5c-7.9,4.6-15.9,9.1-23.9,13.5c-5.7,3.2-11.5,6.3-17.4,9.2c-3.1,1.5-6.1,3.1-9.2,4.5
		c-0.6,0.2-1.1,0.3-1.6,0c-5.6-2.5-11.1-5.3-16.5-8.2c-2.7-1.5-5.5-2.9-8.2-4.4c-9.2-5-18.3-10.1-27.3-15.3
		c-6.4-3.7-12.8-7.2-19.1-11c-5.5-3.3-11.2-6.2-16.5-9.8c-2.8-1.9-4.9-4.4-6.3-7.5c-0.6-1.3-0.9-2.6-0.9-4.1c0-29.4,0-58.9,0-88.3
		c0-4.9,2.6-8.7,6.1-11.8c3.5-3.1,7.7-5.1,11.7-7.4c9.1-5.2,18.2-10.3,27.4-15.4c6.4-3.6,12.9-7,19.4-10.5
		c7.6-4.1,15.3-8.1,23.1-11.8c2.1-1,4.3-1.9,6.4-2.9c0.9-0.4,1.8-0.4,2.7,0c8.3,3.6,16.4,7.8,24.4,12c4.1,2.1,8.2,4.3,12.2,6.5
		c9.2,5,18.3,10,27.4,15.2c5.7,3.2,11.4,6.4,17.1,9.6c3.9,2.2,7.6,4.6,10.3,8.4c1.8,2.5,2.8,5.3,2.8,8.4
		C215.6,87.6,215.6,102.2,215.6,116.8z M180.9,123.7c-0.3-0.8-1-0.4-1.5-0.4c-39.5,0-79.1,0-118.6,0c-0.3,0-0.7,0-1,0
		c-0.3,0-0.5,0.1-0.5,0.4c-5,0.8-8.1,4.9-8,9.7c0.2,11,0.1,22,0.1,33c0,0.8,0,1.6,0.2,2.3c1.1,4.3,4.7,7,9.3,7c25.7,0,51.4,0,77.1,0
		c13.8,0,27.5-0.1,41.3,0c5.8,0,10-4.3,9.9-9.8c-0.2-11-0.1-22-0.1-33c0-0.8,0-1.6-0.2-2.3C187.7,126.7,184.9,124.5,180.9,123.7z
		 M120.1,60.4c-19.9,0-39.7,0-59.6,0c-4.7,0-9.3,4-9.3,9.3c0.1,11.1,0.1,22.3,0,33.4c-0.1,5.3,4.4,9.4,9.4,9.4
		c39.6,0,79.3,0,118.9,0c5,0,9.5-4.1,9.4-9.4c-0.1-11.1-0.2-22.2,0-33.3c0.1-5.4-4.6-9.4-9.4-9.4C159.7,60.4,139.9,60.4,120.1,60.4z
		"/>
	<path class="st2" d="M180.9,123.7c4,0.8,6.7,3,7.8,7c0.2,0.8,0.2,1.6,0.2,2.3c0,11-0.1,22,0.1,33c0.1,5.5-4.1,9.8-9.9,9.8
		c-13.8-0.1-27.5,0-41.3,0c-25.7,0-51.4,0-77.1,0c-4.6,0-8.2-2.7-9.3-7c-0.2-0.8-0.2-1.6-0.2-2.3c0-11,0.1-22-0.1-33
		c-0.1-4.8,3-8.9,8-9.7c0.2,0,0.4,0,0.6,0c39.7,0,79.5,0,119.2,0C179.7,123.7,180.3,123.7,180.9,123.7z M104,140.9
		c-1.5,0-2.9,0.3-4.2,1c-2,1.1-2.9,2.9-2.8,5.1c0,2.1,1.2,3.6,3,4.5c0.7,0.3,1.4,0.6,2.2,0.9c1.1,0.4,2.2,0.7,3.3,1.2
		c0.6,0.2,1,0.6,0.9,1.3c-0.1,0.7-0.6,1-1.3,1.2c-0.7,0.1-1.4,0.1-2.1,0c-1.3-0.3-2.6-0.9-3.8-1.5c-1-0.6-2.2-0.3-2.9,0.6
		c-0.6,0.9-0.5,2.2,0.5,2.9c3.5,2.2,7.2,3.1,11.2,1.5c2.2-0.9,3.2-2.7,3.3-5c0.1-2.2-1-3.7-2.8-4.7c-0.8-0.4-1.7-0.8-2.6-1.1
		c-0.9-0.4-1.9-0.6-2.8-1.1c-0.6-0.4-1.4-0.7-1.1-1.6c0.3-0.9,1.1-1,1.9-1c1.3,0.1,2.6,0.6,3.8,1.1c1.3,0.6,2.6,0.2,3.1-0.9
		c0.5-1.2,0.1-2.3-1.2-3C107.7,141.4,105.9,140.9,104,140.9z M121.1,140.9c-1.3,0-2.5,0.2-3.6,0.7c-2.4,1-3.3,2.8-3.3,5.3
		c0,2.4,1,4,3.2,4.9c1.1,0.4,2.2,0.8,3.3,1.1c0.7,0.2,1.5,0.4,2.2,0.8c0.4,0.3,0.7,0.6,0.7,1.1c0,0.6-0.4,0.9-0.9,1.1
		c-0.4,0.1-0.8,0.2-1.2,0.2c-1.8,0.1-3.5-0.6-5-1.5c-1.2-0.7-2.3-0.5-2.9,0.6c-0.6,1-0.4,2.1,0.6,2.9c1.5,1.2,3.3,1.7,5.1,2
		c2.1,0.3,4.2,0.3,6.1-0.8c2.1-1.2,3-3.2,2.8-5.6c-0.2-2.2-1.6-3.4-3.3-4.2c-1.4-0.7-3-1.1-4.5-1.7c-0.7-0.3-1.6-0.6-1.4-1.6
		c0.2-1.1,1.2-1.1,2.1-1.1c1.3,0,2.4,0.5,3.5,1c1.5,0.7,2.6,0.3,3.1-0.9c0.5-1.2,0-2.3-1.4-3C124.7,141.3,122.9,140.9,121.1,140.9z
		 M86.5,140.8c-2-0.1-4,0.4-5.8,1.8c-5.5,4.4-4.8,12-0.2,15.7c3.3,2.7,9.8,2.5,12.6-0.6c0.9-0.9,0.9-2.2,0.1-3.1c-0.9-1-1.9-1-3.4,0
		c-2.3,1.5-5.2,1.2-6.7-0.7c-1.7-2.1-1.5-5.4,0.4-7.3c1.7-1.7,3.9-1.7,6.3-0.1c1.3,0.8,2.6,0.7,3.4-0.4c0.8-1.1,0.6-2.5-0.6-3.5
		C90.9,141.2,88.9,140.8,86.5,140.8z M166.4,149.8c-2.8,1-3.8,2.8-3.6,5.3c0.1,0.7,0,1.3,0.1,2c0.1,1.6-0.7,2.7-2.1,3.3
		c-0.3,0.1-0.7,0.2-1,0.4c-0.8,0.5-1.3,1.3-1,2.3c0.3,0.9,0.8,1.4,1.8,1.4c4.5-0.1,7.4-3.1,7.3-7.6c0-0.4,0-0.7,0-1.1
		c-0.1-2.7,0.4-3.3,3-3.9c1.7-0.4,2.4-2,1.4-3.3c-0.5-0.7-1.2-0.8-2-0.9c-1.7-0.3-2.4-1.1-2.5-2.7c-0.1-1.2,0-2.4,0-3.6
		c0-2.1-1-3.6-2.8-4.7c-1.3-0.7-2.7-1.2-4.2-1.5c-1.2-0.2-2.2,0.6-2.2,1.7c0,1,0.5,1.7,1.5,2.1c2.4,1,2.8,1.7,2.7,4.3
		c0,0.3,0,0.6,0,0.9C162.6,146.8,163.4,148.8,166.4,149.8z M148,149.9c3.1-1.8,3.5-2.6,3.3-5.9c-0.2-3.3,0.1-3.7,3.1-5.1
		c0.2-0.1,0.3-0.1,0.4-0.2c0.7-0.5,1-1.2,0.8-2c-0.2-0.8-0.8-1.5-1.7-1.4c-2.2,0.1-4.2,0.8-5.9,2.3c-1.8,1.7-1.7,3.9-1.6,6.1
		c0.1,3-0.3,3.5-3.2,4.1c-1.2,0.3-1.9,1-1.8,2.1c0.1,1.2,0.8,1.8,1.8,2c2.8,0.6,3.2,1.2,3.1,4c0,1.1-0.1,2.2,0.1,3.3
		c0.5,2.9,4.5,5.7,7.5,5.2c0.9-0.2,1.5-0.8,1.6-1.7c0.1-1-0.4-1.6-1.3-2c-2.9-1.3-3.3-1.8-3-5C151.5,153.1,150.9,151,148,149.9z
		 M71,154c-1.7,0-2.9,1.3-2.9,3c0,1.7,1.2,3,2.9,3c1.8,0,3.1-1.3,3.1-3C74.1,155.3,72.8,154,71,154z"/>
	<path class="st2" d="M120.1,60.4c19.8,0,39.6,0.1,59.5,0c4.8,0,9.5,4,9.4,9.4c-0.2,11.1-0.2,22.2,0,33.3c0.1,5.3-4.3,9.4-9.4,9.4
		c-39.6,0-79.3,0-118.9,0c-5,0-9.5-4.1-9.4-9.4c0.1-11.1,0.1-22.3,0-33.4c-0.1-5.3,4.6-9.3,9.3-9.3C80.4,60.4,100.2,60.4,120.1,60.4
		z M94.5,87.9c0,2.6,0,5.3,0,7.9c0,0.2,0,0.3,0,0.5c0.3,1.6,1.3,2.4,2.8,2.3c1.5-0.1,2.5-1.1,2.5-2.7c0-3.4,0.1-6.8,0-10.2
		c-0.1-2.6-1.1-4.9-3.7-5.9c-2.8-1-5.3-0.5-7.4,1.7C88.5,81.7,88.5,82,88,82c0-2.1,0-4.3,0-6.4c0-1.5-0.9-2.5-2.3-2.8
		c-1.8-0.3-3.1,1-3.1,3.1c0,5.7,0,11.3,0,17c0,1-0.1,2.1,0,3.1c0.1,1.6,1.3,2.7,2.9,2.6c1.5-0.1,2.5-1.1,2.6-2.8c0-0.6,0-1.2,0-1.9
		c0-2.1,0-4.2,0-6.3c0.1-2,1.1-3.2,2.9-3.4c1.8-0.2,2.9,0.7,3.3,2.7c0,0.2,0.1,0.4,0.1,0.6C94.4,87.7,94.5,87.8,94.5,87.9z
		 M118.8,96.3c0.3,1.6,1.3,2.4,2.8,2.3c1.5-0.1,2.5-1.1,2.5-2.7c0-2.3,0-4.5,0-6.8c0-0.5,0-1.1,0-1.6c0.1-2,1.2-3.2,3-3.2
		c1.9,0,3,1.1,3.1,3.3c0.1,2.5,0,5,0,7.4c0,0.5,0,0.9,0.1,1.4c0.3,1.5,1.4,2.4,2.9,2.3c1.4-0.1,2.4-1.1,2.4-2.6c0-2.4,0-4.9,0-7.3
		c0-0.6,0-1.2,0.2-1.8c0.4-2,2-3,3.9-2.4c1.3,0.4,2,1.5,2,3.2c0,2.8,0,5.5,0,8.3c0,1.6,1.2,2.7,2.8,2.7c1.5,0,2.6-1.1,2.7-2.7
		c0-3.5,0.1-7,0-10.5c-0.1-3.7-2.5-5.9-6.2-6c-2.2,0-4.1,0.6-5.6,2.2c-0.5,0.5-0.7,0.6-1.2-0.1c-0.8-1.1-1.9-1.7-3.2-2
		c-2.8-0.6-5.1,0.1-6.9,2.6c-0.1-0.5-0.2-0.8-0.3-1.1c-0.5-1.1-1.7-1.7-3-1.5c-1.3,0.2-2.2,1.2-2.2,2.5c0,4.7,0,9.3,0,14
		C118.7,96.1,118.7,96.2,118.8,96.3z M110.7,98.7c0.8,0,1.6-0.1,2.3-0.3c1.3-0.3,2.1-1.4,2-2.5c-0.1-1.4-0.9-2-2.5-2
		c-1.4,0-1.9-0.5-1.9-1.9c0-1.9,0-3.7,0-5.6c0-2.1,0-2.1,2.1-2.2c0.2,0,0.3,0,0.5,0c1.2-0.2,1.9-1.2,1.9-2.4
		c-0.1-1.3-0.8-2.1-2.1-2.2c-0.8-0.1-1.8,0.4-2.2-0.2c-0.4-0.5-0.1-1.5-0.2-2.3c-0.1-1.4-1.3-2.5-2.7-2.5c-1.4,0-2.6,1.1-2.7,2.6
		c0,0.5,0,0.9,0,1.4c0.1,0.7-0.1,1-0.8,1.2c-1.1,0.2-1.4,1.2-1.4,2.2c0,1,0.3,1.9,1.5,2.2c0.8,0.1,0.8,0.6,0.8,1.2
		c0,2.6,0,5.2,0,7.8C105.1,97,106.9,98.7,110.7,98.7z M65.7,86.1c3-1.3,5.7-2.6,8.4-3.8c0.8-0.4,1.7-0.7,2.5-1.2
		c0.9-0.5,1.2-1.3,1-2.3c-0.2-0.9-0.8-1.5-1.7-1.7c-0.7-0.1-1.3,0.1-1.9,0.4c-3.7,1.8-7.4,3.6-11.2,5.3c-1.4,0.7-2.5,1.5-2.5,3.3
		c0,1.8,1,2.7,2.5,3.3c2.6,1.2,5.1,2.4,7.7,3.7c1.3,0.6,2.7,1.3,4,1.9c1.2,0.5,2.4,0,3-1.1c0.5-1.1,0.1-2.4-1.1-3
		c-0.3-0.2-0.6-0.3-0.9-0.4C72.2,89.1,69.1,87.7,65.7,86.1z M174.5,86.2c-3.4,1.5-6.6,2.9-9.7,4.4c-0.2,0.1-0.3,0.1-0.5,0.2
		c-1.5,0.7-2.1,1.9-1.5,3.1c0.6,1.3,1.8,1.7,3.3,0.9c3.8-1.8,7.7-3.6,11.5-5.5c1.4-0.7,2.3-1.6,2.3-3.3c0-1.7-1-2.6-2.4-3.2
		c-2.5-1.2-5-2.4-7.5-3.6c-1.3-0.6-2.5-1.2-3.8-1.8c-1.6-0.7-2.9-0.3-3.5,1c-0.6,1.3,0,2.5,1.6,3.2c0.2,0.1,0.4,0.2,0.6,0.2
		C168.1,83.3,171.2,84.7,174.5,86.2z M151.9,85.7c0,3.3,0,6.7,0,10c0,1.8,1,2.9,2.6,2.9c1.7,0,2.8-1.1,2.8-2.9c0-6.6,0-13.3,0-19.9
		c0-1.8-1.2-3-2.8-2.9c-1.6,0.1-2.6,1.2-2.6,3C151.9,79.1,151.9,82.4,151.9,85.7z"/>
	<path class="st3" d="M180.9,123.7c-0.6,0-1.2,0-1.9,0c-39.7,0-79.5,0-119.2,0c-0.2,0-0.4,0-0.6,0c0.1-0.3,0.2-0.4,0.5-0.4
		c0.3,0,0.7,0,1,0c39.5,0,79.1,0,118.6,0C179.9,123.3,180.6,123,180.9,123.7z"/>
	<path class="st4" d="M104,140.9c1.9,0,3.8,0.5,5.5,1.4c1.3,0.6,1.8,1.8,1.2,3c-0.5,1.1-1.8,1.5-3.1,0.9c-1.2-0.5-2.4-1.1-3.8-1.1
		c-0.8,0-1.7,0-1.9,1c-0.3,0.9,0.5,1.2,1.1,1.6c0.9,0.5,1.8,0.7,2.8,1.1c0.9,0.4,1.8,0.7,2.6,1.1c1.9,1,2.9,2.5,2.8,4.7
		c-0.1,2.3-1.1,4.1-3.3,5c-4,1.6-7.7,0.7-11.2-1.5c-1-0.6-1.1-1.9-0.5-2.9c0.6-0.9,1.8-1.2,2.9-0.6c1.2,0.7,2.4,1.2,3.8,1.5
		c0.7,0.2,1.4,0.2,2.1,0c0.6-0.1,1.2-0.4,1.3-1.2c0.1-0.7-0.4-1.1-0.9-1.3c-1.1-0.4-2.2-0.8-3.3-1.2c-0.7-0.3-1.5-0.5-2.2-0.9
		c-1.8-0.9-2.9-2.3-3-4.5c0-2.3,0.9-4,2.8-5.1C101.1,141.1,102.5,140.8,104,140.9z"/>
	<path class="st4" d="M121.1,140.9c1.8,0,3.6,0.4,5.2,1.3c1.4,0.7,1.9,1.8,1.4,3c-0.5,1.2-1.7,1.5-3.1,0.9c-1.1-0.5-2.3-1-3.5-1
		c-0.9,0-1.9,0-2.1,1.1c-0.2,1,0.7,1.3,1.4,1.6c1.5,0.6,3.1,1,4.5,1.7c1.8,0.8,3.2,2.1,3.3,4.2c0.2,2.4-0.7,4.4-2.8,5.6
		c-1.9,1.1-4,1.1-6.1,0.8c-1.9-0.3-3.6-0.8-5.1-2c-1-0.8-1.3-2-0.6-2.9c0.6-1,1.7-1.2,2.9-0.6c1.6,0.9,3.2,1.6,5,1.5
		c0.4,0,0.8-0.1,1.2-0.2c0.5-0.2,0.8-0.5,0.9-1.1c0-0.5-0.2-0.8-0.7-1.1c-0.7-0.4-1.4-0.6-2.2-0.8c-1.1-0.4-2.2-0.7-3.3-1.1
		c-2.2-0.9-3.3-2.5-3.2-4.9c0-2.5,1-4.3,3.3-5.3C118.6,141,119.8,140.8,121.1,140.9z"/>
	<path class="st4" d="M86.5,140.8c2.4,0,4.4,0.4,6.1,1.9c1.2,1,1.4,2.4,0.6,3.5c-0.8,1.1-2.1,1.2-3.4,0.4c-2.5-1.6-4.6-1.5-6.3,0.1
		c-1.9,1.8-2,5.2-0.4,7.3c1.5,1.9,4.4,2.2,6.7,0.7c1.6-1,2.5-1,3.4,0c0.8,0.9,0.8,2.2-0.1,3.1c-2.9,3.1-9.3,3.2-12.6,0.6
		c-4.6-3.7-5.3-11.3,0.2-15.7C82.5,141.2,84.5,140.8,86.5,140.8z"/>
	<path class="st4" d="M166.4,149.8c-3-1-3.9-3-3.6-5.6c0-0.3,0-0.6,0-0.9c0.1-2.7-0.3-3.3-2.7-4.3c-1-0.4-1.5-1.1-1.5-2.1
		c0-1.2,1-1.9,2.2-1.7c1.5,0.2,2.9,0.7,4.2,1.5c1.8,1,2.7,2.6,2.8,4.7c0,1.2-0.1,2.4,0,3.6c0.1,1.7,0.8,2.4,2.5,2.7
		c0.7,0.1,1.5,0.3,2,0.9c1,1.3,0.3,2.9-1.4,3.3c-2.6,0.6-3.1,1.2-3,3.9c0,0.4,0,0.7,0,1.1c0.1,4.4-2.8,7.5-7.3,7.6
		c-1,0-1.5-0.5-1.8-1.4c-0.3-1,0.2-1.8,1-2.3c0.3-0.2,0.7-0.3,1-0.4c1.5-0.6,2.2-1.7,2.1-3.3c0-0.7,0-1.3-0.1-2
		C162.6,152.6,163.6,150.8,166.4,149.8z"/>
	<path class="st4" d="M148,149.9c3,1.1,3.6,3.2,3.3,5.9c-0.3,3.2,0.1,3.7,3,5c0.9,0.4,1.4,1,1.3,2c-0.1,0.9-0.6,1.5-1.6,1.7
		c-3,0.5-7-2.3-7.5-5.2c-0.2-1.1-0.1-2.2-0.1-3.3c0.1-2.9-0.4-3.5-3.1-4c-1.1-0.2-1.8-0.8-1.8-2c0-1.1,0.6-1.8,1.8-2.1
		c2.8-0.6,3.3-1.1,3.2-4.1c-0.1-2.2-0.2-4.4,1.6-6.1c1.6-1.5,3.7-2.2,5.9-2.3c0.9-0.1,1.4,0.6,1.7,1.4c0.2,0.9-0.1,1.5-0.8,2
		c-0.1,0.1-0.3,0.2-0.4,0.2c-3,1.4-3.3,1.8-3.1,5.1C151.5,147.3,151,148.1,148,149.9z"/>
	<path class="st4" d="M71,154c1.8,0,3.1,1.3,3.1,3c0,1.7-1.3,3-3.1,3c-1.7,0-2.9-1.3-2.9-3C68.1,155.3,69.4,154,71,154z"/>
	<path class="st5" d="M118.8,96c0-4.7,0-9.3,0-14c0-1.3,0.9-2.2,2.2-2.5c1.2-0.2,2.5,0.4,3,1.5c0.1,0.3,0.2,0.6,0.3,1.1
		c1.8-2.5,4.1-3.2,6.9-2.6c1.3,0.3,2.4,0.9,3.2,2c0.4,0.7,0.7,0.6,1.2,0.1c1.5-1.6,3.4-2.3,5.6-2.2c3.7,0.1,6.1,2.3,6.2,6
		c0.1,3.5,0.1,7,0,10.5c0,1.6-1.1,2.6-2.7,2.7c-1.6,0-2.7-1.1-2.8-2.7c0-2.8,0-5.5,0-8.3c0-1.7-0.8-2.8-2-3.2
		c-1.9-0.6-3.6,0.4-3.9,2.4c-0.1,0.6-0.2,1.2-0.2,1.8c0,2.4,0,4.9,0,7.3c0,1.5-1,2.5-2.4,2.6c-1.5,0.1-2.6-0.8-2.9-2.3
		c-0.1-0.4-0.1-0.9-0.1-1.4c0-2.5,0-5,0-7.4c-0.1-2.1-1.2-3.3-3.1-3.3c-1.7,0-2.9,1.2-3,3.2c0,0.5,0,1.1,0,1.6c0,2.3,0,4.5,0,6.8
		c0,1.5-1.1,2.6-2.5,2.7c-1.5,0.1-2.5-0.7-2.8-2.3c0,0,0.1-0.1,0.1-0.1C118.8,96.2,118.8,96.1,118.8,96z"/>
	<path class="st6" d="M94.5,95.8c0-2.6,0-5.3,0-7.9c0,0,0.1-0.1,0.1-0.1c0-0.1-0.1-0.1-0.1-0.2c0-0.2-0.1-0.4-0.1-0.6
		c-0.5-2-1.6-2.9-3.3-2.7c-1.8,0.2-2.9,1.4-2.9,3.4c-0.1,2.1,0,4.2,0,6.3c0,0.6,0,1.2,0,1.9c0,1.6-1,2.7-2.6,2.8
		c-1.6,0.1-2.8-1-2.9-2.6c-0.1-1,0-2.1,0-3.1c0-5.7,0-11.3,0-17c0-2.1,1.4-3.4,3.1-3.1c1.4,0.2,2.3,1.3,2.3,2.8c0,2.1,0,4.3,0,6.4
		c0.4,0,0.5-0.2,0.7-0.4c2.1-2.2,4.6-2.7,7.4-1.7c2.7,1,3.7,3.3,3.7,5.9c0.1,3.4,0.1,6.8,0,10.2c0,1.6-1.1,2.6-2.5,2.7
		c-1.5,0.1-2.5-0.7-2.8-2.3C94.7,96.1,94.7,96,94.5,95.8z"/>
	<path class="st5" d="M110.7,98.7c-3.8,0-5.5-1.8-5.5-5.5c0-2.6,0-5.2,0-7.8c0-0.6,0-1.1-0.8-1.2c-1.1-0.2-1.4-1.2-1.5-2.2
		c0-1,0.3-1.9,1.4-2.2c0.8-0.2,0.9-0.5,0.8-1.2c0-0.4,0-0.9,0-1.4c0.1-1.5,1.2-2.5,2.7-2.6c1.4,0,2.6,1,2.7,2.5
		c0.1,0.8-0.2,1.8,0.2,2.3c0.4,0.6,1.5,0.1,2.2,0.2c1.2,0.1,2,0.9,2.1,2.2c0.1,1.2-0.7,2.2-1.9,2.4c-0.2,0-0.3,0-0.5,0
		c-2.1,0.1-2.1,0.1-2.1,2.2c0,1.9,0,3.7,0,5.6c0,1.5,0.5,1.9,1.9,1.9c1.6,0,2.3,0.6,2.5,2c0.1,1.1-0.7,2.1-2,2.5
		C112.2,98.7,111.5,98.8,110.7,98.7z"/>
	<path class="st4" d="M65.7,86.1c3.4,1.5,6.6,2.9,9.7,4.4c0.3,0.1,0.6,0.2,0.9,0.4c1.2,0.7,1.6,1.9,1.1,3c-0.5,1.1-1.7,1.6-3,1.1
		c-1.4-0.6-2.7-1.2-4-1.9c-2.6-1.2-5.1-2.5-7.7-3.7c-1.4-0.7-2.5-1.6-2.5-3.3c0-1.8,1.1-2.6,2.5-3.3c3.7-1.7,7.4-3.5,11.2-5.3
		c0.6-0.3,1.2-0.5,1.9-0.4c1,0.2,1.5,0.8,1.7,1.7c0.2,1-0.1,1.8-1,2.3c-0.8,0.5-1.6,0.8-2.5,1.2C71.4,83.6,68.7,84.8,65.7,86.1z"/>
	<path class="st4" d="M174.5,86.2c-3.4-1.5-6.4-2.9-9.5-4.3c-0.2-0.1-0.4-0.2-0.6-0.2c-1.6-0.7-2.2-1.9-1.6-3.2
		c0.5-1.3,1.9-1.7,3.5-1c1.3,0.6,2.5,1.2,3.8,1.8c2.5,1.2,5,2.4,7.5,3.6c1.4,0.7,2.4,1.5,2.4,3.2c0,1.7-0.9,2.6-2.3,3.3
		c-3.8,1.8-7.7,3.7-11.5,5.5c-1.5,0.7-2.8,0.3-3.3-0.9c-0.6-1.3,0-2.4,1.5-3.1c0.1-0.1,0.3-0.1,0.5-0.2
		C168,89.2,171.1,87.7,174.5,86.2z"/>
	<path class="st7" d="M151.9,85.7c0-3.3,0-6.6,0-9.9c0-1.7,1.1-2.9,2.6-3c1.6-0.1,2.8,1.2,2.8,2.9c0,6.6,0,13.3,0,19.9
		c0,1.8-1.1,3-2.8,2.9c-1.6,0-2.6-1.1-2.6-2.9C151.9,92.3,151.9,89,151.9,85.7z"/>
	<path class="st8" d="M94.5,95.8c0.2,0.2,0.2,0.3,0,0.5C94.5,96.1,94.5,96,94.5,95.8z"/>
	<path class="st8" d="M94.5,87.6c0,0.1,0.1,0.1,0.1,0.2c0,0-0.1,0-0.1,0.1C94.5,87.8,94.4,87.7,94.5,87.6z"/>
	<path class="st8" d="M118.8,96c0,0.1,0.1,0.1,0.1,0.2c0,0-0.1,0-0.1,0.1C118.7,96.2,118.7,96.1,118.8,96z"/>
</g>
</svg>
