<?xml version="1.0" encoding="utf-8"?>
<!-- Generator: Adobe Illustrator 27.0.0, SVG Export Plug-In . SVG Version: 6.00 Build 0)  -->
<svg version="1.1"
	 id="svg2" xmlns:sodipodi="http://sodipodi.sourceforge.net/DTD/sodipodi-0.dtd" xmlns:dc="http://purl.org/dc/elements/1.1/" xmlns:inkscape="http://www.inkscape.org/namespaces/inkscape" xmlns:rdf="http://www.w3.org/1999/02/22-rdf-syntax-ns#" xmlns:svg="http://www.w3.org/2000/svg" xmlns:cc="http://creativecommons.org/ns#"
	 xmlns="http://www.w3.org/2000/svg" xmlns:xlink="http://www.w3.org/1999/xlink" x="0px" y="0px" viewBox="0 0 791.3 512"
	 style="enable-background:new 0 0 791.3 512;" xml:space="preserve">
<style type="text/css">
	.st0{fill:#264DE4;}
	.st1{fill:#2965F1;}
	.st2{fill:#EBEBEB;}
	.st3{fill:#FFFFFF;}
	.st4{fill:#E44D26;}
	.st5{fill:#F16529;}
</style>
<sodipodi:namedview  bordercolor="#666666" borderopacity="1.0" fit-margin-bottom="0" fit-margin-left="0" fit-margin-right="0" fit-margin-top="0" id="base" inkscape:current-layer="layer1" inkscape:cx="-276.49014" inkscape:cy="244.10462" inkscape:document-units="px" inkscape:pageopacity="0.0" inkscape:pageshadow="2" inkscape:window-height="938" inkscape:window-maximized="1" inkscape:window-width="1280" inkscape:window-x="0" inkscape:window-y="31" inkscape:zoom="0.35" pagecolor="#ffffff" showgrid="false">
	</sodipodi:namedview>
<polygon id="polygon2989" class="st0" points="181.1,512 33,470.9 0,100.6 362.7,100.6 329.7,470.8 "/>
<polygon id="polygon2991" class="st1" points="301.4,447.2 329.6,130.9 181.4,130.9 181.4,480.5 "/>
<polygon id="polygon2993" class="st2" points="75.7,268.2 79.7,313.6 181.4,313.6 181.4,268.2 "/>
<polygon id="polygon2995" class="st2" points="67.5,176.3 71.6,221.7 181.4,221.7 181.4,176.3 181.2,176.3 "/>
<polygon id="polygon2997" class="st2" points="181.4,386.2 181.2,386.2 130.6,372.5 127.4,336.3 102.8,336.3 81.8,336.3 88.1,407.6 
	181.2,433.5 181.4,433.4 "/>
<polygon id="polygon3005" class="st3" points="286.8,268.2 295,176.3 181.2,176.3 181.2,221.7 245.2,221.7 241.1,268.2 181.2,268.2 
	181.2,313.6 237.1,313.6 231.9,372.5 181.2,386.2 181.2,433.4 274.3,407.6 275,400 285.7,280.4 "/>
<polygon id="polygon3028" class="st4" points="791.3,100.6 758.3,470.8 609.7,512 461.6,470.9 428.6,100.6 "/>
<polygon id="polygon3030" class="st5" points="609.9,480.5 730,447.2 758.2,130.9 609.9,130.9 "/>
<polygon id="polygon3032" class="st2" points="545.7,221.7 609.9,221.7 609.9,176.3 609.8,176.3 496.1,176.3 497.2,188.5 
	508.3,313.6 609.9,313.6 609.9,268.2 549.8,268.2 "/>
<polygon id="polygon3034" class="st2" points="555.9,336.3 531.4,336.3 510.3,336.3 516.7,407.6 609.7,433.5 609.9,433.4 
	609.9,386.2 609.7,386.2 559.2,372.5 "/>
<polygon id="polygon3044" class="st3" points="609.8,313.6 665.7,313.6 660.4,372.5 609.8,386.2 609.8,433.4 702.9,407.6 703.6,400 
	714.2,280.4 715.3,268.2 703.1,268.2 609.8,268.2 "/>
<polygon id="polygon3046" class="st3" points="609.8,221.6 609.8,221.7 719.3,221.7 719.3,221.7 719.5,221.7 720.4,211.5 
	722.4,188.5 723.5,176.3 609.8,176.3 609.8,204.5 "/>
</svg>
