<?xml version="1.0" encoding="utf-8"?>
<!-- Generator: Adobe Illustrator 27.0.0, SVG Export Plug-In . SVG Version: 6.00 Build 0)  -->
<svg version="1.1" id="Layer_1" xmlns="http://www.w3.org/2000/svg" xmlns:xlink="http://www.w3.org/1999/xlink" x="0px" y="0px"
	 viewBox="0 0 240 234" style="enable-background:new 0 0 240 234;" xml:space="preserve">
<style type="text/css">
	.st0{fill:#ED2B10;}
	.st1{fill:#FDF6F5;}
</style>
<g>
	<g id="Layer_2_1_">
		<g id="Surfaces">
			<g id="Photo_Surface">
				<g id="Outline_no_shadow">
					<path class="st0" d="M42.5,0h155C221,0,240,19,240,42.5v149c0,23.5-19,42.5-42.5,42.5h-155C19,234,0,215,0,191.5v-149
						C0,19,19,0,42.5,0z"/>
				</g>
			</g>
		</g>
	</g>
	<g>
		<path class="st1" d="M111.4,98.8c-1.7,0.4-2.9,0.9-4.1,2.6c-3.7,5.4-8.1,10.4-12.6,16.1c-4.4-5.5-8.9-10.4-12.7-15.7
			c-3.1-4.2-7.2-3.1-10.8-2.5c-3.8,0.6-1.9,4.4-1.9,6.7c-0.2,11.1-0.1,22.1-0.1,33.2c0,4.9,2.9,6.8,7.5,5.2c2.9-1,1.8-3.2,1.8-5
			c0.1-8.4,0.1-16.8,0.1-25.1c5.5,4.4,9.3,8.9,13,13.6c2.1,2.7,3.8,2.9,6.1,0c3.7-4.8,7.7-9.4,12.6-15.4c0,10.4,0.1,18.9-0.1,27.5
			c-0.1,3.5,1,4.7,4.5,4.6c3.2-0.1,5.6-0.2,5.4-4.5c-0.2-6.9,0-13.7,0.1-20.6c-0.1-3.8-0.7-7.6-0.2-11.3
			C121,101.3,118.8,97.8,111.4,98.8z"/>
		<path class="st1" d="M47.6,116.7c4.4-5.4,8.4-11.1,12.6-16.7c-13.3-5.4-15.4,6.7-21.4,12.7c-6.2-5.9-8.3-17.8-21.6-12.8
			c3.8,5.1,7,10.2,11.1,14.5c4.1,4.3,3.6,7.4,0,11.6c-4.7,5.5-8.8,11.6-13.1,17.5c10.9,3.8,14.6-3.6,18.9-10c4.4-6.5,4.4-6.4,9.1,0
			c4.5,6.2,8.2,14.2,19,10.1c-5-6.8-9.7-13.6-14.8-20.1C45.5,120.9,45.6,119.2,47.6,116.7z"/>
		<path class="st1" d="M182.3,121.4c-0.7-10.1-9.1-15.1-18.4-11.2c-1.9,0.8-3.9,4-5.8-0.8c-0.7-1.7-5-1-7.5-0.4
			c-2.7,0.7-1.5,3.3-1.5,5.1c-0.2,7.1-0.3,14.2-0.4,21.2c0.1,1.1,0.3,2.2,0.2,3.3c-0.5,4,0.6,5.9,5.3,5.9c5.2,0.1,5-2.7,5-6.3
			c0-4.9-0.2-9.8,0.4-14.6c0.5-4.1,3.3-6.9,7.7-6.8c4.7,0.1,5.4,3.7,5.4,7.5c0,4.6-0.1,9.3,0.1,13.9c0.1,2.5-1.6,6,3.5,6.1
			c4.1,0.1,7-0.4,6.7-5.3C182.7,133.3,182.7,127.4,182.3,121.4z"/>
		<path class="st1" d="M139.4,114.4c0-3,0.7-5.9-4.4-5.9c-4.6,0.1-5.6,1.7-5.3,5.7c0.2,2.6-0.2,5.2-0.3,7.8
			c0.1,5.5,0.4,11.1,0.2,16.6c-0.1,4,0.6,5.9,5.3,5.9c5,0,4.6-2.7,4.5-5.9c0-2,0.1-4,0.1-6C139.5,126.7,139.4,120.6,139.4,114.4z"/>
		<path class="st1" d="M220.1,95.3c-4.1,0-5.8,1.2-5.1,5.2c1.1,6.5-1.1,8.7-8,8.4c-10.6-0.4-19,8.2-18.8,17.9
			c0.2,8.9,8.3,16.7,18.3,17.4c4.4,0.3,8.9-0.1,13.3,0.2c3.7,0.2,5.1-1,5-4.8c-0.3-6.6-0.1-13.3-0.1-19.9c0,0,0,0,0,0
			c0-6.4-0.1-12.8,0.1-19.3C224.8,97,224.2,95.3,220.1,95.3z M210.6,136.7c-7.6,0-11.6-3.2-11.7-9.5c-0.1-6.6,3.7-10,10.8-10.4
			c9.5-0.5,3.6,6.8,5.8,10.2C213.2,130,219.2,136.7,210.6,136.7z"/>
		<path class="st1" d="M134.3,99.2c3.2-0.2,5.9-0.1,5.1-4.3c0.1-3.1,0.7-6-4-5.8c-3.5,0.1-6,0.2-5.7,4.9
			C129.9,97.2,130,99.5,134.3,99.2z"/>
	</g>
</g>
</svg>
